<svg id="Layer_1" data-name="Layer 1" xmlns="http://www.w3.org/2000/svg" viewBox="0 0 512 512"><title>world-globe-flat</title><rect y="9.14" width="512" height="493.72" rx="54.99" ry="54.99" transform="translate(512) rotate(90)" fill="#e6d6a6"/><rect x="20.24" y="11.1" width="471.53" height="489.81" rx="43.89" ry="43.89" fill="#b9a468"/><path d="M313.73,108A121.31,121.31,0,1,1,145.26,279.06L132.84,289A137.21,137.21,0,1,0,323.13,95.17Z" fill="#eedaa6"/><path d="M243.61,99.54A108.76,108.76,0,1,0,352.37,208.3,108.77,108.77,0,0,0,243.61,99.54Zm0,212.51A103.74,103.74,0,1,1,347.36,208.3,103.74,103.74,0,0,1,243.61,312Z" fill="#eedaa6"/><path d="M228.15,104.38s-36.65,4.74-61.57,33.4c0,0,19.19-19.94,30.91-19.94L200.1,119a5.08,5.08,0,0,1-.74,1.37,10.47,10.47,0,0,0-1.87,2.87c0,.49.13,2.12.13,2.12l-.87,1.24a3.47,3.47,0,0,0-1.13.75c-.25.37-.74.5-.74,1.37a11.27,11.27,0,0,0,.25,2l.12,2.12-.63,1.25L193,135a5.86,5.86,0,0,1-2.61,0c-.75-.38-1-1.87-1-1.87l2.12-1.37s.25-.38-.37-.75-.49-1.62-1.62-1.37a9.59,9.59,0,0,0-2.86,1.74l-1.87,1.25s-.87,2.24-.51,2.24a4.77,4.77,0,0,1,1.37.63,3.86,3.86,0,0,1,.25,1.25,6.32,6.32,0,0,1-.62,1.87s-.37.62-1.63.38-2.37-.51-3.11-.75a3.56,3.56,0,0,0-2.25-.38c-.74.24-1,.5-1.13.87a15,15,0,0,1-2.73,1.87s-.88.37-.88.88a13.65,13.65,0,0,1-.75,2.37,5.54,5.54,0,0,1-2.49,1.25c-1.62.37-2,.87-2,.87l-.87,1.87a11.34,11.34,0,0,0-2.13,2,17.88,17.88,0,0,1-3.86,3.12,4.93,4.93,0,0,0-1.75,2.24c-.37,1-.25,2.5-.61,3a7.85,7.85,0,0,0-1,2.87,4.61,4.61,0,0,1-1.25,2.62,10.9,10.9,0,0,1-1.62,1.24,22,22,0,0,0-3.37,1.37,3.25,3.25,0,0,0-1.12,2.13c0,.37,1.12,1.24,1.49,1.24a8.73,8.73,0,0,1,1.5.37s.12,2,.12,2.37-.74,2.24,0,2.24a11,11,0,0,1,1.89.25l2,.51,1.74,1.11,1,.75a6.33,6.33,0,0,1-.49,1.5c-.26.38-.75,1.24-1.12,1.12s-.25-.13-.62-1-.25-1.25-1.13-1.5-1.75.63-2.12.37-1-.25-1.62-.87-.75.5-.62-.62.62-1.62.37-2.12-1-1.63-1.5-1.63.25,1-.5,0-1.24-1.37-1.62-1.24-.87.25-.87-.38.37-1.88.37-2.49.36-1.62.36-2.13.51-3.48.51-3.48a63.67,63.67,0,0,0-4.48,11.5s1.32-.16,1.32.67a11.8,11.8,0,0,1,.16,2.49,12.17,12.17,0,0,0-.16,3.33c0,2.66.68,3.33.34,4.16a14.9,14.9,0,0,0-1,3,9.23,9.23,0,0,0,1,4,5.26,5.26,0,0,0,.83,1.17c.49.5-.83,2.5.49.5s1.82-2.83,1.82-2.83l.84-1s0-1.33,1.65-1,1.84,0,2.32.67-.66,2.33.17,2.49,3.33-1,4-.82a2,2,0,0,1,1.82,1.49c.34,1.16.84,2.82,1.5,3.16s.5,1.82.82,2.83,2.66,1.65,3.17,1.65a14,14,0,0,1,3.49.67c.67.33,0,1.5,1.33,1.83s1.66,3,1.66,3,.49,2.33.17,3-.17,1.83.66,2,3,.5,3,.5-1.17,1.65.67,2.32a33.47,33.47,0,0,1,4.16,1.66c.49.33-1.16,1.83,1,1.66s4.16-.5,5.16.33.16,2,2.82,3.5,3.49,2,4.16,2.32,2,.17,1.65,2.16-.65,3.32-1.65,4.15-2.33,3.49-3,4.32a3.56,3.56,0,0,0-.66,3.66c.66,1.33,1.49,2.82,1.49,3.65s.34,3.32-.16,4.32-1.5,2.82-1.5,2.82,1.82,1.5.49,2.82a15.42,15.42,0,0,1-4.31,3.16,13.66,13.66,0,0,0-3,2.16s.16,4.16,0,5-4,7.48-2.66,9a4.35,4.35,0,0,1,1.15,4.17c-.33,1-.82.82-1.15,1.65s-2.83.17-1.34,2.5,2.33,2.82,3,4.15.5,1.83,1.49,3.16,1.49,2.65,2.66,3.65,2.5,1.65,2.5,2.81,2.49,3.83-.5,1.83-.33-.15-4.15-3.31S180.3,289,178.62,287s.83,5-2.32-3.32-4-7.32-4.82-9.15-.17.17-2.5-4-.33-1.5-2.33-4.17-2.17,1-3.15-3.82-1.16-1.66-2.51-7.14,1-5.65-2-8.31-2.82-1.33-3.82-3.16.34-.16-2.32-4.82-6.31-6.48-6.15-14.46.16-9.31.16-9.31-4-3.15-2.65-7.8,1.82-3.16,1.32-4.66-1-1.16-2.32-3-1.5-1.65-1.82-2.82-.84-3.65-.84-3.65l-1,.83s-10.63,105,94.06,120.48c0,0-24.18-5.23-26.17-10,0,0-.5-4.48.5-4.48s2.5.76,4-.5,3.25-2.74,3.25-2.74l.24,2s-1.49.25,3.23-.49,4.75-.25,6.49-1,3.75-4.49,4.73-2.25-1.25,1.24,1,2.25,6.5-.51,6.5-.51,7.22.51,8-.26.74-2,2-1.74,2,2.24,2,2.24l-4,2.25-3.74,2.75s-1.75.49-.25,1.24,2.24.5,4,.75,6,3.49,7,1.5a29.46,29.46,0,0,1,2-3.49c.73-1.24.48-2.75,2.25-2.75a14.65,14.65,0,0,1,3.48.5l-1.5,3.24s3-.25,4.25-.25,1.49,2,3.24.25,2-1.74,3.74-2,4.24-1,5-.75a12.12,12.12,0,0,0,3,.51c.74,0,4.48,2.73,5.23,2.24s5.23-.25,5.23-.25S276,314.27,250.09,314.76c0,0,58,2.66,90.57-53.84s10-129-64.48-154.22c0,0,55.68,20.61,70.37,74l-.49,1c-1.5-1.5-1.5-.75-2.74-3.24s-.26-2-1.25-3.74-.74-.49-2-2.24-1.5-1.49-2.5-2.5-2-4.23-2.75-5.24-3-1.24-4-1.49-.49-1.5-1-.26,1.51,3.24,1.51,3.24v4a27,27,0,0,1,1.5,4.73,16,16,0,0,1-1.24,3.73s-.5,3-1.51,3.5a57.26,57.26,0,0,1-6.72,1.49,26.9,26.9,0,0,1-2.75-3.73c-1-1.74-4.24-2.25-4.73-3s.74-2.25-.76-4.23,0-1.5-2-3.25l-2-1.74s-4.48-1.5-3,1-.24,5.24,1,5.49,2-.76,3,1.5,1.24,3.24,2,4,1,4,2,4.24,3.74,0,3.5,1.25-1.75,3,0,3.49,2,1.24,3,1,.5.24,2.24-.5a10.94,10.94,0,0,1,3.76-.75s2.22,1.74,2.22,2.49-.74,5-.74,5l-2.24,4.24s.25,7.47-1,7.47-2.73,3.24-3.47,3.74-1,5.49-1,5.49l-2.24,2.74a29.46,29.46,0,0,0,0,4.73,20.5,20.5,0,0,1,.26,7c-.5,2-3.23,4-3.23,4s3.73,3.49,1.73,4-4,3.49-4.49,4.24-.25,2.25-1.49,2.49-3.48.5-3.48,1.25v3.73l-4,5.74-4.75,4s.51,2.74-1,3-6.47,2.25-7.23,3a14.77,14.77,0,0,1-5.74,2.48c-1.24,0,.75,3.5-1.24,0s-.49-1.24-2.25-5.22-1.75-1-1.75-4,.26-.24,0-3,.75-.75-.74-4-1.24-2.25-3.23-4.25-3.49,0-2.24-3.24.49,0,1.25-3.24-.26-3.75,1.73-5.24,3.74-1.74,3.49-3.74a14.93,14.93,0,0,0-.74-4c-.51-1.25-2.5-3.24-2.75-4s-.25-.24-1.73-2.49-2.5-3.49-2.5-3.49-.5-5.23-.5-7.23-.76,1.24,0-2,1-5.24,1-5.24-3.73-2.49-5.24-2.25-1.23,2.5-3.48.75-1.74-3-2.48-3.49a3,3,0,0,0-3.49.26c-1.26,1-4,1-6.25,2s-3,.75-6,.75-6.47,1-8.72-.25-2.49.51-3.49-2,0-2.24-2.25-3.49-2.73-.25-3-2.49,1-1.75-.74-3.74a22.11,22.11,0,0,0-1.75-2c-2.74-3-3.74-.49-2.74-3s1.74-1,1.74-4,4.48,1.24,1.74-4.73-3.24-4.74-.74-9.23,5.73-6,6.23-7,1.5-3.49,2.49-4.23.26-1.5,2.49-1.25a8.06,8.06,0,0,0,6.24-2.24c1.49-1.49,3.49-3.74,4.49-4s.5.25,2.75-.24a16.49,16.49,0,0,1,4.24-.74c1.48,0-1.52.5,2.73-.25s3.24-.75,4.24-.75.49.25,2.23.5,1.49-3.49,1.74.25-1.49,5.49,1.5,5.74,0,.25,3,.25,2.24.5,3.74,1.25S278,157,280.26,157s-1,3.24,2.24,0-2.51-3.74,3.23-3.24,6.49,1.74,7.48,1.24,1.23.5,3.74-.74,2.73-1.25,3.73-.75,1,2.74,2,.5,3-1.5,0-3-4,.25-4.48-1.75,2.48-1.49-.51-2A17.8,17.8,0,0,1,293,146c-2.25-.75-4.49,2.25-5.24,0s-5,1.49-.74-2.24,2.48-5.24,5.23-4.49,2,3.24,3.73,1.74,5-2.5,1.75-4.73-1-1.25-4.24-2.74-6.22,5.73-7.72,4.74-2.24-1.75-3.23-1.25-1,3.24-1.25,5.23,1.74,2.49-1.49,1,3.48-.75-3.74-3.49-9.72-2-10.72-1-2.49.75-3.25,1.49,2.25,2.5-.74.75-6,1-6,1a2.17,2.17,0,0,0-2.25.51c-1.25,1-3.75,1.74-5.24,1.24s-4.74.5-2-3,.74-1.49,5-3.24,10.47-2,5-3.24,3-1.25-4.24-4.74-7.47,1.25-7.22-3.49-.51-5-2-4.74-6,1.25-7.71,1.5.24,1.74-3-.26-4.49,1-3.25-2,1.5-3.49,3.5-5.24,1.49-8.23,6.47-5.74,3,1.75,7,2,5.73-.51,5.73-1.25-4.5-3-4.5-3-1.49.5-1-.26l1.51-2.24-1.51-1.25S231.65,103.62,228.15,104.38Z" fill="#eedaa6"/><path d="M235.22,339.65v25.1a40,40,0,0,1-20.9,17.57c-14.43,5-27.65,12.76-26.39,20.29s18.37,14.22,69,14.22v-82.2Z" fill="#eedaa6"/><path d="M264.13,339.65v25.1a34.46,34.46,0,0,0,19.61,17.57c14.43,5,31.91,12.76,30.65,20.29s-28.57,14.22-64.72,14.22v-82.2Z" fill="#eedaa6"/><path d="M313.73,108A121.31,121.31,0,1,1,145.26,279.06L132.84,289A137.21,137.21,0,1,0,323.13,95.17Z" fill="#eedaa6"/><path d="M243.61,99.54A108.76,108.76,0,1,0,352.37,208.3,108.77,108.77,0,0,0,243.61,99.54Zm0,212.51A103.74,103.74,0,1,1,347.36,208.3,103.74,103.74,0,0,1,243.61,312Z" fill="#eedaa6"/><path d="M228.15,104.38s-36.65,4.74-61.57,33.4c0,0,19.19-19.94,30.91-19.94L200.1,119a5.08,5.08,0,0,1-.74,1.37,10.47,10.47,0,0,0-1.87,2.87c0,.49.13,2.12.13,2.12l-.87,1.24a3.47,3.47,0,0,0-1.13.75c-.25.37-.74.5-.74,1.37a11.27,11.27,0,0,0,.25,2l.12,2.12-.63,1.25L193,135a5.86,5.86,0,0,1-2.61,0c-.75-.38-1-1.87-1-1.87l2.12-1.37s.25-.38-.37-.75-.49-1.62-1.62-1.37a9.59,9.59,0,0,0-2.86,1.74l-1.87,1.25s-.87,2.24-.51,2.24a4.77,4.77,0,0,1,1.37.63,3.86,3.86,0,0,1,.25,1.25,6.32,6.32,0,0,1-.62,1.87s-.37.62-1.63.38-2.37-.51-3.11-.75a3.56,3.56,0,0,0-2.25-.38c-.74.24-1,.5-1.13.87a15,15,0,0,1-2.73,1.87s-.88.37-.88.88a13.65,13.65,0,0,1-.75,2.37,5.54,5.54,0,0,1-2.49,1.25c-1.62.37-2,.87-2,.87l-.87,1.87a11.34,11.34,0,0,0-2.13,2,17.88,17.88,0,0,1-3.86,3.12,4.93,4.93,0,0,0-1.75,2.24c-.37,1-.25,2.5-.61,3a7.85,7.85,0,0,0-1,2.87,4.61,4.61,0,0,1-1.25,2.62,10.9,10.9,0,0,1-1.62,1.24,22,22,0,0,0-3.37,1.37,3.25,3.25,0,0,0-1.12,2.13c0,.37,1.12,1.24,1.49,1.24a8.73,8.73,0,0,1,1.5.37s.12,2,.12,2.37-.74,2.24,0,2.24a11,11,0,0,1,1.89.25l2,.51,1.74,1.11,1,.75a6.33,6.33,0,0,1-.49,1.5c-.26.38-.75,1.24-1.12,1.12s-.25-.13-.62-1-.25-1.25-1.13-1.5-1.75.63-2.12.37-1-.25-1.62-.87-.75.5-.62-.62.62-1.62.37-2.12-1-1.63-1.5-1.63.25,1-.5,0-1.24-1.37-1.62-1.24-.87.25-.87-.38.37-1.88.37-2.49.36-1.62.36-2.13.51-3.48.51-3.48a63.67,63.67,0,0,0-4.48,11.5s1.32-.16,1.32.67a11.8,11.8,0,0,1,.16,2.49,12.17,12.17,0,0,0-.16,3.33c0,2.66.68,3.33.34,4.16a14.9,14.9,0,0,0-1,3,9.23,9.23,0,0,0,1,4,5.26,5.26,0,0,0,.83,1.17c.49.5-.83,2.5.49.5s1.82-2.83,1.82-2.83l.84-1s0-1.33,1.65-1,1.84,0,2.32.67-.66,2.33.17,2.49,3.33-1,4-.82a2,2,0,0,1,1.82,1.49c.34,1.16.84,2.82,1.5,3.16s.5,1.82.82,2.83,2.66,1.65,3.17,1.65a14,14,0,0,1,3.49.67c.67.33,0,1.5,1.33,1.83s1.66,3,1.66,3,.49,2.33.17,3-.17,1.83.66,2,3,.5,3,.5-1.17,1.65.67,2.32a33.47,33.47,0,0,1,4.16,1.66c.49.33-1.16,1.83,1,1.66s4.16-.5,5.16.33.16,2,2.82,3.5,3.49,2,4.16,2.32,2,.17,1.65,2.16-.65,3.32-1.65,4.15-2.33,3.49-3,4.32a3.56,3.56,0,0,0-.66,3.66c.66,1.33,1.49,2.82,1.49,3.65s.34,3.32-.16,4.32-1.5,2.82-1.5,2.82,1.82,1.5.49,2.82a15.42,15.42,0,0,1-4.31,3.16,13.66,13.66,0,0,0-3,2.16s.16,4.16,0,5-4,7.48-2.66,9a4.35,4.35,0,0,1,1.15,4.17c-.33,1-.82.82-1.15,1.65s-2.83.17-1.34,2.5,2.33,2.82,3,4.15.5,1.83,1.49,3.16,1.49,2.65,2.66,3.65,2.5,1.65,2.5,2.81,2.49,3.83-.5,1.83-.33-.15-4.15-3.31S180.3,289,178.62,287s.83,5-2.32-3.32-4-7.32-4.82-9.15-.17.17-2.5-4-.33-1.5-2.33-4.17-2.17,1-3.15-3.82-1.16-1.66-2.51-7.14,1-5.65-2-8.31-2.82-1.33-3.82-3.16.34-.16-2.32-4.82-6.31-6.48-6.15-14.46.16-9.31.16-9.31-4-3.15-2.65-7.8,1.82-3.16,1.32-4.66-1-1.16-2.32-3-1.5-1.65-1.82-2.82-.84-3.65-.84-3.65l-1,.83s-10.63,105,94.06,120.48c0,0-24.18-5.23-26.17-10,0,0-.5-4.48.5-4.48s2.5.76,4-.5,3.25-2.74,3.25-2.74l.24,2s-1.49.25,3.23-.49,4.75-.25,6.49-1,3.75-4.49,4.73-2.25-1.25,1.24,1,2.25,6.5-.51,6.5-.51,7.22.51,8-.26.74-2,2-1.74,2,2.24,2,2.24l-4,2.25-3.74,2.75s-1.75.49-.25,1.24,2.24.5,4,.75,6,3.49,7,1.5a29.46,29.46,0,0,1,2-3.49c.73-1.24.48-2.75,2.25-2.75a14.65,14.65,0,0,1,3.48.5l-1.5,3.24s3-.25,4.25-.25,1.49,2,3.24.25,2-1.74,3.74-2,4.24-1,5-.75a12.12,12.12,0,0,0,3,.51c.74,0,4.48,2.73,5.23,2.24s5.23-.25,5.23-.25S276,314.27,250.09,314.76c0,0,58,2.66,90.57-53.84s10-129-64.48-154.22c0,0,55.68,20.61,70.37,74l-.49,1c-1.5-1.5-1.5-.75-2.74-3.24s-.26-2-1.25-3.74-.74-.49-2-2.24-1.5-1.49-2.5-2.5-2-4.23-2.75-5.24-3-1.24-4-1.49-.49-1.5-1-.26,1.51,3.24,1.51,3.24v4a27,27,0,0,1,1.5,4.73,16,16,0,0,1-1.24,3.73s-.5,3-1.51,3.5a57.26,57.26,0,0,1-6.72,1.49,26.9,26.9,0,0,1-2.75-3.73c-1-1.74-4.24-2.25-4.73-3s.74-2.25-.76-4.23,0-1.5-2-3.25l-2-1.74s-4.48-1.5-3,1-.24,5.24,1,5.49,2-.76,3,1.5,1.24,3.24,2,4,1,4,2,4.24,3.74,0,3.5,1.25-1.75,3,0,3.49,2,1.24,3,1,.5.24,2.24-.5a10.94,10.94,0,0,1,3.76-.75s2.22,1.74,2.22,2.49-.74,5-.74,5l-2.24,4.24s.25,7.47-1,7.47-2.73,3.24-3.47,3.74-1,5.49-1,5.49l-2.24,2.74a29.46,29.46,0,0,0,0,4.73,20.5,20.5,0,0,1,.26,7c-.5,2-3.23,4-3.23,4s3.73,3.49,1.73,4-4,3.49-4.49,4.24-.25,2.25-1.49,2.49-3.48.5-3.48,1.25v3.73l-4,5.74-4.75,4s.51,2.74-1,3-6.47,2.25-7.23,3a14.77,14.77,0,0,1-5.74,2.48c-1.24,0,.75,3.5-1.24,0s-.49-1.24-2.25-5.22-1.75-1-1.75-4,.26-.24,0-3,.75-.75-.74-4-1.24-2.25-3.23-4.25-3.49,0-2.24-3.24.49,0,1.25-3.24-.26-3.75,1.73-5.24,3.74-1.74,3.49-3.74a14.93,14.93,0,0,0-.74-4c-.51-1.25-2.5-3.24-2.75-4s-.25-.24-1.73-2.49-2.5-3.49-2.5-3.49-.5-5.23-.5-7.23-.76,1.24,0-2,1-5.24,1-5.24-3.73-2.49-5.24-2.25-1.23,2.5-3.48.75-1.74-3-2.48-3.49a3,3,0,0,0-3.49.26c-1.26,1-4,1-6.25,2s-3,.75-6,.75-6.47,1-8.72-.25-2.49.51-3.49-2,0-2.24-2.25-3.49-2.73-.25-3-2.49,1-1.75-.74-3.74a22.11,22.11,0,0,0-1.75-2c-2.74-3-3.74-.49-2.74-3s1.74-1,1.74-4,4.48,1.24,1.74-4.73-3.24-4.74-.74-9.23,5.73-6,6.23-7,1.5-3.49,2.49-4.23.26-1.5,2.49-1.25a8.06,8.06,0,0,0,6.24-2.24c1.49-1.49,3.49-3.74,4.49-4s.5.25,2.75-.24a16.49,16.49,0,0,1,4.24-.74c1.48,0-1.52.5,2.73-.25s3.24-.75,4.24-.75.49.25,2.23.5,1.49-3.49,1.74.25-1.49,5.49,1.5,5.74,0,.25,3,.25,2.24.5,3.74,1.25S278,157,280.26,157s-1,3.24,2.24,0-2.51-3.74,3.23-3.24,6.49,1.74,7.48,1.24,1.23.5,3.74-.74,2.73-1.25,3.73-.75,1,2.74,2,.5,3-1.5,0-3-4,.25-4.48-1.75,2.48-1.49-.51-2A17.8,17.8,0,0,1,293,146c-2.25-.75-4.49,2.25-5.24,0s-5,1.49-.74-2.24,2.48-5.24,5.23-4.49,2,3.24,3.73,1.74,5-2.5,1.75-4.73-1-1.25-4.24-2.74-6.22,5.73-7.72,4.74-2.24-1.75-3.23-1.25-1,3.24-1.25,5.23,1.74,2.49-1.49,1,3.48-.75-3.74-3.49-9.72-2-10.72-1-2.49.75-3.25,1.49,2.25,2.5-.74.75-6,1-6,1a2.17,2.17,0,0,0-2.25.51c-1.25,1-3.75,1.74-5.24,1.24s-4.74.5-2-3,.74-1.49,5-3.24,10.47-2,5-3.24,3-1.25-4.24-4.74-7.47,1.25-7.22-3.49-.51-5-2-4.74-6,1.25-7.71,1.5.24,1.74-3-.26-4.49,1-3.25-2,1.5-3.49,3.5-5.24,1.49-8.23,6.47-5.74,3,1.75,7,2,5.73-.51,5.73-1.25-4.5-3-4.5-3-1.49.5-1-.26l1.51-2.24-1.51-1.25S231.65,103.62,228.15,104.38Z" fill="#eedaa6"/></svg>