<svg id="Layer_1" data-name="Layer 1" xmlns="http://www.w3.org/2000/svg" viewBox="0 0 512 512"><title>microscope-flat</title><path d="M55,9.14H457a55,55,0,0,1,55,55V447.88a55,55,0,0,1-55,55H55a55,55,0,0,1-55-55V64.12a55,55,0,0,1,55-55Z" transform="translate(512) rotate(90)" fill="#e6d6a6"/><rect x="20.23" y="11.1" width="471.53" height="489.81" rx="43.89" ry="43.89" fill="#008982"/><path d="M366.86,311.8a2,2,0,0,1-2,2H256.67a2,2,0,0,1-2-2V298a2,2,0,0,1,2-2H364.84a2,2,0,0,1,2,2Z" fill="#eedaa6"/><path d="M282.46,254.48a2.05,2.05,0,0,0,2.71,1L310,244a2,2,0,0,0,1-2.68l-3.78-8.24-28.57,13.17Z" fill="#eedaa6"/><path d="M221,116.18l24.9-11.45a2,2,0,0,0,1-2.69L240.52,88.2a2,2,0,0,0-2.69-1L213,98.66a2,2,0,0,0-1,2.7l6.39,13.83A2,2,0,0,0,221,116.18Z" fill="#eedaa6"/><path d="M314.19,227.66,257.57,104.73a2,2,0,0,0-2.69-1l-39.17,18a2,2,0,0,0-1,2.68l19.89,43.19.36,0a25.72,25.72,0,0,1,19.31,42.71l17,37.05a2.06,2.06,0,0,0,2.71,1l4.63-2.15-2.59-5.64a2,2,0,0,1,1-2.68L302,226.46a2.05,2.05,0,0,1,2.69,1l2.59,5.62,5.93-2.73A2,2,0,0,0,314.19,227.66Zm-12.67-2.17-2.8,1.3a2,2,0,0,1-2.71-1L247.76,121a2,2,0,0,1,1-2.69l2.8-1.3a2.05,2.05,0,0,1,2.69,1L302.52,222.8A2,2,0,0,1,301.52,225.49Z" fill="#eedaa6"/><path d="M321.07,312a78.8,78.8,0,1,1-110.3-98,31.9,31.9,0,1,0-7.58-22.59A102.35,102.35,0,1,0,345.95,312ZM235,173.8a19.57,19.57,0,1,1-19.57,19.57A19.59,19.59,0,0,1,235,173.8Z" fill="#eedaa6"/><path d="M281.82,411.22a2,2,0,0,1-2,2H216.66a2,2,0,0,1-2-2V369.51a2,2,0,0,1,2-2h63.15a2,2,0,0,1,2,2Z" fill="#eedaa6"/><path d="M302.35,423a2,2,0,0,1-2,2H189.28a2,2,0,0,1-2-2V406.28a2,2,0,0,1,2-2H300.33a2,2,0,0,1,2,2Z" fill="#eedaa6"/></svg>