<svg id="Layer_1" data-name="Layer 1" xmlns="http://www.w3.org/2000/svg" viewBox="0 0 512 512"><title>glasses-flat</title><polygon points="322.01 426.85 323.37 426.07 322.01 426.07 322.01 426.85" fill="#e6d6a6" fill-rule="evenodd"/><rect y="9.14" width="512" height="493.72" rx="54.99" ry="54.99" transform="translate(512) rotate(90)" fill="#e6d6a6"/><rect x="20.23" y="11.1" width="471.53" height="489.81" rx="43.89" ry="43.89" fill="#647980"/><path d="M434.62,230.81a82.9,82.9,0,0,0-156.46-3.75,51.34,51.34,0,0,0-39.74-2.67,62.41,62.41,0,0,0-6.3,2.52,82.89,82.89,0,0,0-156.59,4.51,13.43,13.43,0,0,0-8.29,12.38v9.92a13.43,13.43,0,0,0,4.93,10.39,82.26,82.26,0,0,0,82.44,74.49c45.64,0,82.81-37.05,82.81-82.6,0-.91,0-1.8-.06-2.74a39.06,39.06,0,0,1,9.2-4.6c9.33-3.12,17.86-1.42,26.4,5.27,0,.69,0,1.37,0,2.06a82.78,82.78,0,0,0,82.79,82.6c42.14,0,77.57-32.22,82.29-73.25a13.44,13.44,0,0,0,6.74-11.64v-9.92A13.44,13.44,0,0,0,434.62,230.81Zm-78.89,79.75A54.55,54.55,0,1,1,410.47,256,54.68,54.68,0,0,1,355.73,310.56Zm-201.12,0A54.55,54.55,0,1,1,209.35,256,54.7,54.7,0,0,1,154.62,310.56Z" fill="#eedaa6"/></svg>