<svg id="Layer_1" data-name="Layer 1" xmlns="http://www.w3.org/2000/svg" viewBox="0 0 512 512"><title>magnifier-flat</title><path d="M55,9.14H457a55,55,0,0,1,55,55V447.88a55,55,0,0,1-55,55H55a55,55,0,0,1-55-55V64.13A55,55,0,0,1,55,9.14Z" transform="translate(512) rotate(90)" fill="#e6d6a6"/><rect x="20.24" y="11.1" width="471.53" height="489.81" rx="43.89" ry="43.89" fill="#b94355"/><path d="M355.5,141.15a93,93,0,1,0,7.25,131.32A93,93,0,0,0,355.5,141.15ZM243,266.8a75.64,75.64,0,1,1,106.81-5.9A75.64,75.64,0,0,1,243,266.8Z" fill="#eedaa6"/><rect x="162.71" y="293.37" width="90.49" height="25.14" transform="translate(-158.69 256.81) rotate(-48.16)" fill="#eedaa6"/><path d="M163.69,385.52a20.11,20.11,0,0,1-28.39,1.56h0a20.11,20.11,0,0,1-1.57-28.39l57-63.67a20.12,20.12,0,0,1,28.39-1.57h0a20.11,20.11,0,0,1,1.57,28.4Z" fill="#eedaa6"/></svg>