<svg id="Layer_1" data-name="Layer 1" xmlns="http://www.w3.org/2000/svg" viewBox="0 0 512 512"><title>cube-flat</title><rect y="9.14" width="512" height="493.72" rx="54.99" ry="54.99" transform="translate(512 0) rotate(90)" fill="#e6d6a6"/><rect x="20.24" y="11.1" width="471.53" height="489.81" rx="43.89" ry="43.89" fill="#e2ba20"/><path d="M381.57,306.11V190.49a25.1,25.1,0,1,0-28.73-37.7l-72.45-24c.07-.77.19-1.53.19-2.32a25.1,25.1,0,0,0-50.2,0c0,.81,0,1.62.12,2.41l-71.37,23.9a25.1,25.1,0,1,0-26.18,38.43V305.42a25.1,25.1,0,1,0,28.47,34.14l72.24,33.61a25.13,25.13,0,1,0,43.63.08l73.26-33.78a25.1,25.1,0,1,0,31-33.37Zm-235.53,0V190.49a25.17,25.17,0,0,0,11.34-7.73L230.94,217a25.07,25.07,0,0,0,19.25,29.81v30.38L153,309.7A25.12,25.12,0,0,0,146,306.11Zm15.45,14.57L250.19,291V361a24.91,24.91,0,0,0-6.47,2.38L163,325.87A24.9,24.9,0,0,0,161.48,320.68Zm101.8,41.05V291.79l87.17,28.93a24.75,24.75,0,0,0-1.42,5.05l-81.76,37.69A25.16,25.16,0,0,0,263.28,361.73Zm0-83.73V246.11A25.06,25.06,0,0,0,280,217.06l74.49-34.34a25.11,25.11,0,0,0,14,8.45V305.42a25.06,25.06,0,0,0-9.57,4.31Zm85.46-112.78c0,.47-.07.94-.07,1.42a25.26,25.26,0,0,0,.35,4.2l-75,34.57a25,25,0,0,0-10.76-7V150.27A25.16,25.16,0,0,0,275.85,141ZM235.12,141.09A25.13,25.13,0,0,0,250.19,151v46.77A25,25,0,0,0,237,205.34l-74-34.43a25.51,25.51,0,0,0,.38-4.28c0-.5,0-1-.08-1.48Z" fill="#eedaa6"/></svg>