<svg id="Layer_1" data-name="Layer 1" xmlns="http://www.w3.org/2000/svg" viewBox="0 0 512 512"><title>testtubes-flat</title><rect y="9.14" width="512" height="493.72" rx="54.99" ry="54.99" transform="translate(512) rotate(90)" fill="#e6d6a6"/><rect x="20.23" y="11.1" width="471.53" height="489.81" rx="43.89" ry="43.89" fill="#809b52"/><path d="M241,132.33c-.42-14.21-7.85-18-12.19-18H160.39c-4.32,0-11.77,3.79-12.21,18v.38l0,.39c.35,4.81,2.57,13.26,8.39,15.73v191a102.61,102.61,0,0,0,4.61,28.51c4.05,12.5,12.44,27.26,29.51,29.14v.12l3.49.06h.71l3.63-.08v-.11c17-1.87,25.44-16.64,29.49-29.14a102.57,102.57,0,0,0,4.61-28.51v-191c5.84-2.48,8-10.92,8.39-15.73l0-.39ZM233,136c-.88,2.12-2.07,3.05-3.86,3.05h-3.55V283.14H163.69V139.08h-3.55c-1.8,0-3-.93-3.88-3.05a15.6,15.6,0,0,1-1-3.72c.34-6.52,3.32-7.5,5.09-7.5h68.45c1.79,0,4.74,1,5.09,7.5A15.57,15.57,0,0,1,233,136Z" fill="#eedaa6"/><rect x="215.09" y="148.95" width="3.65" height="153.37" fill="#eedaa6"/><rect x="206.62" y="273.19" width="10.35" height="3.27" fill="#eedaa6"/><rect x="206.7" y="259.98" width="10.23" height="3.24" fill="#eedaa6"/><rect x="206.7" y="245.37" width="10.23" height="3.23" fill="#eedaa6"/><rect x="206.7" y="231.97" width="10.23" height="3.24" fill="#eedaa6"/><rect x="206.7" y="217.36" width="10.23" height="3.23" fill="#eedaa6"/><rect x="206.7" y="204.46" width="10.23" height="3.23" fill="#eedaa6"/><rect x="206.7" y="189.83" width="10.23" height="3.24" fill="#eedaa6"/><rect x="206.7" y="175.96" width="10.23" height="3.22" fill="#eedaa6"/><rect x="206.7" y="161.35" width="10.23" height="3.23" fill="#eedaa6"/><rect x="337.85" y="148.95" width="3.65" height="153.37" fill="#eedaa6"/><rect x="329.4" y="273.19" width="10.33" height="3.27" fill="#eedaa6"/><rect x="329.46" y="259.98" width="10.21" height="3.24" fill="#eedaa6"/><rect x="329.46" y="245.37" width="10.21" height="3.23" fill="#eedaa6"/><rect x="329.46" y="231.97" width="10.21" height="3.24" fill="#eedaa6"/><rect x="329.46" y="217.36" width="10.21" height="3.23" fill="#eedaa6"/><rect x="329.46" y="204.46" width="10.21" height="3.23" fill="#eedaa6"/><rect x="329.46" y="189.83" width="10.21" height="3.24" fill="#eedaa6"/><rect x="329.46" y="175.96" width="10.21" height="3.22" fill="#eedaa6"/><rect x="329.46" y="161.35" width="10.21" height="3.23" fill="#eedaa6"/><path d="M363.79,132.33c-.42-14.21-7.85-18-12.19-18H283.15c-4.32,0-11.77,3.79-12.19,18l0,.38,0,.39c.35,4.81,2.57,13.26,8.37,15.73v191A103.83,103.83,0,0,0,284,368.35c4.05,12.5,12.46,27.26,29.49,29.14v.12l3.51.06h.73l3.61-.08v-.11c17-1.87,25.44-16.64,29.51-29.14a103.44,103.44,0,0,0,4.61-28.51v-191c5.82-2.48,8-10.92,8.37-15.73l0-.39ZM355.72,136c-.88,2.12-2.07,3.05-3.86,3.05h-3.55V239.69H286.45V139.08H282.9c-1.8,0-3-.93-3.88-3.05a15.39,15.39,0,0,1-.94-3.72c.35-6.52,3.3-7.5,5.07-7.5h68.45c1.77,0,4.74,1,5.09,7.5A14.71,14.71,0,0,1,355.72,136Z" fill="#eedaa6"/></svg>