<svg id="Layer_1" data-name="Layer 1" xmlns="http://www.w3.org/2000/svg" viewBox="0 0 512 512"><title>molecule-flat</title><rect y="9.14" width="512" height="493.72" rx="54.99" ry="54.99" transform="translate(512) rotate(90)" fill="#e6d6a6"/><rect x="20.23" y="11.1" width="471.53" height="489.81" rx="43.89" ry="43.89" fill="#57595b"/><path d="M371.72,289.7c-2.39,0-2.81-.09-4-2.18-1.91-3.47-5.39-9.73-6.87-12.33-2.09-3.67-.29-5.06.33-6.06a16.11,16.11,0,0,0,.1-16.7c-.64-1.07-2.37-2.71-.75-5.66,1.2-2.18,5.3-9.53,7.34-13.19,1.29-2.33,1.55-1.88,3.81-1.88a16.19,16.19,0,1,0-11.9-5.26c1.18,1.29,2.21,2.08,1,4.21-1.75,3.2-5,9-6.32,11.33-1.91,3.23-5.28,2.6-7.08,2.6a16.1,16.1,0,0,0-14.59,9.28,4.22,4.22,0,0,1-3.71,2.75H322.7c-2.68,0-3.7-1.34-5-3.73a16.11,16.11,0,0,0-14.09-8.3c-3.89,0-4.47.28-5.88-2.14-3.21-5.53-10.23-17.61-11-19a6.11,6.11,0,0,1,.45-5.43,16.06,16.06,0,0,0,1.14-17.19c-1.53-2.8-2.47-3.3-1-5.83,1-1.65,2.26-3.78,3.1-5.19,1.56-2.61,4.2-2.26,5.47-2.15a16.13,16.13,0,1,0-12.68-8c1.49,2.58,2.52,3.24.73,6.29-.93,1.58-2,3.44-2.88,4.71-1.71,2.6-5.07,1.74-7,1.74a16.1,16.1,0,0,0-14.62,9.35,6.12,6.12,0,0,1-4.68,3H233.16a4.88,4.88,0,0,1-4.84-3.22,16.1,16.1,0,0,0-14.51-9.12c-1.15,0-4-.84-4.92-2.41s-1.87-3.35-2.67-4.84c-1.64-3,0-5.33.73-6.44a16.07,16.07,0,0,0-.81-19.09c-.75-.92-1.82-3.69-.85-5.35,1.86-3.2,4.78-8.15,5.82-9.64a4.43,4.43,0,0,1,4.75-1.94,16.12,16.12,0,1,0-10.64-7.7c.45.78.95,2.48-.46,5.46-.92,2-4.1,7.15-6.18,10.48-2.31,2.36-3.08,2.66-5,2.66a16.11,16.11,0,0,0-14.08,8.27c-1.28,2.29-1.55,3.33-4.88,3.33h-7.5a5.31,5.31,0,0,1-5.16-3.58,16.15,16.15,0,1,0-.6,15c1.55-2.68,2-3.8,4.7-3.8h8.1c3.52,0,4,1.83,4.35,2.7a16.11,16.11,0,0,0,15.06,10.37c1.41,0,3.69-.46,5.74,2.49a46,46,0,0,1,2.54,4.25c1,1.89,0,5-.7,5.94a16.11,16.11,0,0,0-1,18.58,6.1,6.1,0,0,1,.39,6.77c-1.29,2.41-7.13,12.45-10.27,17.83a7.19,7.19,0,0,1-6.13,2.9A16.12,16.12,0,0,0,170,252.94c-.86,1.56-1.47,3.65-5.35,3.65H159c-3.36,0-4.19-3-5-4.37a16.13,16.13,0,1,0,.62,15.86c1-1.93,1.52-3.91,4.39-3.91h4.89a6.8,6.8,0,0,1,5.95,4,16.13,16.13,0,0,0,14.31,8.68c1.53,0,4.41-.25,6.45,2.87,1.44,2.21,6.92,11.81,10,17.2,2,3.6,1.33,4.06-.41,6.79a16,16,0,0,0-.82,15.75c.66,1.33,2.49,3.11.64,6.71-.92,1.8-2,3.64-2.9,5-1.7,2.73-3.26,1.74-5.21,1.54A16.07,16.07,0,0,0,175.7,342a5.64,5.64,0,0,1-5.08,3.43H167.1c-2.64,0-4.42-2.21-5.45-4.15a16.15,16.15,0,1,0-.32,15.56c1.39-2.41,3.22-3.81,5.31-3.81h4.12c3.21,0,4.86,2.59,5.58,3.82a16.1,16.1,0,0,0,13.4,8c3.25.12,3.66,0,5.37,2.7l1.35,2.44c1.22,2.38,0,3.65-2,7A16.16,16.16,0,1,0,209,369c-3-.09-4.58-.11-5.55-2.07l-1.51-2.7c-1.19-1.91-1.3-2.48,1.1-5.55a16.11,16.11,0,0,0,1.26-18c-.66-1.15-2.13-3.08-.7-5.8.77-1.46,2-3.54,3-5.14,1.29-2.09,2.77-1.35,7.21-1.35a16.1,16.1,0,0,0,14.62-9.34c.44-1,.89-3,3.76-3h23.56c1.7,0,3.37,2.06,3.81,3a16.12,16.12,0,0,0,14.61,9.32c1,0,3.05-.42,4.26,2,.6,1.21,1.79,3.35,2.83,5.18a5.45,5.45,0,0,1-.49,6.1,16.12,16.12,0,1,0,28.44,14.54,4,4,0,0,1,3.74-3.08h6.26c1.69,0,3.38,1.93,3.68,2.85a16.13,16.13,0,1,0,1.18-12.88c-1.17,2.12-1.89,2.44-4.22,2.44h-7.22c-3.82,0-4.17-1.88-4.69-2.75a16.1,16.1,0,0,0-13.94-8c-3.54,0-4.17.5-5.64-2.17-.86-1.57-1.93-3.48-2.68-4.76-1.49-2.54.11-4.34.83-5.19a16.08,16.08,0,0,0,.61-20c-.62-.84-2.39-2.2-.49-5.13,1.46-2.25,8-13.71,10.93-18.88,1.09-1.92,3.24-1.87,6-1.87a16.11,16.11,0,0,0,14.71-9.53c.45-1,1.32-3.12,4-3.12h6c2.53,0,3.64,1.48,4.55,3.41a16.13,16.13,0,0,0,14.59,9.25c1.8,0,5-1.19,6.87,2.21,1.28,2.28,4.31,7.74,6.18,11.09,1.3,2.36.88,3-.93,5.1a16,16,0,0,0-4,10.59,16.14,16.14,0,1,0,16.14-16.13ZM290.88,275c-1,1.49-7.37,12.68-10.64,18.38-1.91,3.35-3.84,2.75-6.08,2.75a16.12,16.12,0,0,0-14.48,9c-.5,1-1.29,3.29-3.94,3.29H232.29c-2.57,0-3.25-1.7-3.93-3.13a16.1,16.1,0,0,0-14.55-9.2c-1.58,0-4.64.68-6.55-2.82s-10.11-17.51-10.11-17.51c-1.59-2.19-1.12-3.87.47-6.27a16.08,16.08,0,0,0-.36-18.26c-1.44-2-1.76-3.58-.47-5.87,3-5.39,8.88-15.69,10.42-17.95,2.1-3.08,5-2.89,6.61-2.89a16.11,16.11,0,0,0,14.39-8.87c.55-1.09,1.45-3.47,5.57-3.47h21.41c2,0,4,2.19,4.47,3.2a16.1,16.1,0,0,0,14.52,9.14c1.45,0,4.47-.15,5.92,2.42C281.18,229,287.85,240.51,291,246a5.33,5.33,0,0,1-.28,5A16.08,16.08,0,0,0,290,269.4C290.71,270.47,292.17,273,290.88,275Z" fill="#eedaa6"/><circle cx="214.03" cy="208.47" r="11.76" fill="#eedaa6"/><path d="M282.46,350.93a11.76,11.76,0,1,1,11.76,11.76A11.76,11.76,0,0,1,282.46,350.93Z" fill="#eedaa6"/><path d="M303.34,181.72a11.76,11.76,0,1,1,4.31-16.07A11.77,11.77,0,0,1,303.34,181.72Z" fill="#eedaa6"/><circle cx="193.78" cy="169.67" r="11.76" fill="#eedaa6"/><path d="M184.66,338.6a11.76,11.76,0,1,1-4.31,16.07A11.77,11.77,0,0,1,184.66,338.6Z" fill="#eedaa6"/><circle cx="214.03" cy="312.3" r="11.76" fill="#eedaa6"/><circle cx="274.39" cy="208.47" r="11.76" fill="#eedaa6"/><circle cx="274.39" cy="312.3" r="11.76" fill="#eedaa6"/><path d="M196.13,260.7a11.76,11.76,0,1,1-11.77-11.76A11.76,11.76,0,0,1,196.13,260.7Z" fill="#eedaa6"/><circle cx="140.5" cy="260.7" r="11.76" fill="#eedaa6"/><circle cx="147.6" cy="348.79" r="11.76" fill="#eedaa6"/><circle cx="303.82" cy="260.7" r="11.76" fill="#eedaa6"/><circle cx="347.68" cy="260.7" r="11.76" fill="#eedaa6"/><circle cx="371.94" cy="305.84" r="11.76" fill="#eedaa6"/><circle cx="371.94" cy="215.56" r="11.76" fill="#eedaa6"/><path d="M213.51,116.68a11.76,11.76,0,1,1-4.3,16.07A11.77,11.77,0,0,1,213.51,116.68Z" fill="#eedaa6"/><circle cx="147.6" cy="168.48" r="11.76" fill="#eedaa6"/><path d="M214.58,374.95A11.76,11.76,0,1,0,218.88,391,11.77,11.77,0,0,0,214.58,374.95Z" fill="#eedaa6"/><circle cx="338.4" cy="350.93" r="11.76" fill="#eedaa6"/></svg>