<svg id="Layer_1" data-name="Layer 1" xmlns="http://www.w3.org/2000/svg" viewBox="0 0 512 512"><title>atom-flat</title><rect y="9.14" width="512" height="493.73" rx="54.99" ry="54.99" transform="translate(512 0) rotate(90)" fill="#e6d6a6"/><rect x="20.23" y="11.1" width="471.53" height="489.81" rx="43.89" ry="43.89" fill="#906d88"/><path d="M286.39,256a28.82,28.82,0,1,1-28.82-28.82A28.81,28.81,0,0,1,286.39,256Z" fill="#eedaa6"/><path d="M342.82,353.74c-32.33,0-77.6-17.28-121.09-46.27-32.37-21.56-59.54-46.86-76.55-71.2-18-25.87-22.62-48.14-12.9-62.72,6.66-10,19.43-15.3,36.9-15.3,32.35,0,77.6,17.31,121.11,46.3,32.37,21.55,59.54,46.84,76.53,71.18,18,25.88,22.64,48.14,12.92,62.71C373.06,348.47,360.31,353.74,342.82,353.74ZM169.17,169.82c-9.37,0-21.7,1.76-27.28,10.15-6.8,10.19-2.15,28.3,12.77,49.69,16.19,23.19,42.28,47.4,73.48,68.19,41,27.37,85,44.34,114.68,44.34,9.37,0,21.71-1.76,27.3-10.14,6.8-10.2,2.13-28.31-12.79-49.69-16.19-23.19-42.28-47.42-73.46-68.18C242.82,186.81,198.86,169.82,169.17,169.82Z" fill="#eedaa6"/><path d="M169.06,351.51c-18.74,0-32.18-5.63-38.88-16.29-9.33-14.82-4.17-36.95,14.53-62.35,17.61-23.9,45.45-48.5,78.33-69.2,43-27,87.76-43.18,119.9-43.18,18.72,0,32.18,5.64,38.88,16.27,9.31,14.83,4.17,37-14.55,62.36C349.67,263,321.85,287.62,289,308.33,246,335.38,201.2,351.51,169.06,351.51ZM343,172c-29.61,0-73.17,15.87-113.74,41.41-31.7,20-58.41,43.5-75.19,66.28-15.47,21-20.6,39-14.05,49.31,5.64,9,18.93,10.91,29.09,10.91,29.59,0,73.17-15.88,113.72-41.42,31.72-20,58.42-43.49,75.19-66.27,15.48-21,20.6-39,14.07-49.33C366.37,173.94,353.09,172,343,172Z" fill="#eedaa6"/><path d="M256,404.69c-34.68,0-61.84-65.32-61.84-148.71S221.32,107.31,256,107.31,317.84,172.62,317.84,256,290.67,404.69,256,404.69Zm0-285.81c-24.29,0-50.26,55.09-50.26,137.1s26,137.16,50.26,137.16S306.28,338,306.28,256,280.26,118.88,256,118.88Z" fill="#eedaa6"/></svg>